<?xml version="1.0" standalone="no"?>
<!DOCTYPE svg PUBLIC "-//W3C//DTD SVG 20010904//EN"
 "http://www.w3.org/TR/2001/REC-SVG-20010904/DTD/svg10.dtd">
<svg version="1.0" xmlns="http://www.w3.org/2000/svg"
 width="150.000000pt" height="150.000000pt" viewBox="0 0 150.000000 150.000000"
 preserveAspectRatio="xMidYMid meet">

<g transform="translate(0.000000,150.000000) scale(0.100000,-0.100000)"
fill="#000000" stroke="none">
<path d="M964 1401 c-20 -47 -31 -60 -43 -56 -12 3 -27 -9 -50 -41 -41 -59
-50 -51 -17 15 14 28 26 53 26 57 0 3 -17 -8 -37 -24 -21 -16 -51 -37 -67 -48
l-29 -18 6 37 c3 20 4 37 3 37 -2 0 -16 -25 -32 -56 -28 -55 -29 -56 -44 -35
-52 73 -49 74 -48 -19 1 -83 2 -83 7 -25 l7 60 18 -44 19 -44 24 44 c19 37 22
40 17 14 l-7 -30 44 41 c80 74 83 74 55 9 -15 -32 -25 -60 -23 -62 2 -2 32 15
66 37 68 44 68 40 9 -48 -17 -24 -28 -46 -25 -48 3 -3 19 2 37 11 18 9 33 15
35 13 1 -2 -17 -27 -41 -56 l-43 -53 -21 41 c-18 36 -23 39 -41 29 -17 -9 -21
-7 -26 10 -6 23 -18 27 -28 11 -5 -8 -11 -7 -21 1 -11 9 -20 5 -43 -20 -32
-34 -45 -61 -31 -61 6 0 10 5 10 11 0 16 72 1 87 -18 7 -9 10 -21 6 -27 -4 -7
-2 -7 6 0 23 21 9 49 -26 52 -40 4 -59 24 -38 42 12 10 16 9 21 -4 6 -15 8
-15 24 -1 15 14 18 13 29 -11 11 -26 12 -26 31 -9 20 18 20 17 20 -16 0 -19 3
-43 6 -55 4 -16 -7 -34 -43 -72 -58 -61 -84 -71 -112 -43 -28 28 -28 45 0 31
11 -7 23 -9 27 -6 3 3 0 6 -7 6 -6 0 -22 11 -35 24 l-22 25 -19 -89 c-20 -94
-31 -106 -80 -94 -12 3 -46 -4 -76 -15 -30 -12 -55 -21 -57 -21 -2 0 0 16 4
35 l6 35 -68 -30 c-38 -16 -88 -34 -111 -40 l-42 -10 25 -54 c35 -78 40 -139
17 -208 l-19 -57 31 -34 c44 -48 77 -68 148 -87 l62 -17 -4 -68 -3 -69 26 17
c14 10 26 15 26 12 0 -4 14 4 32 16 17 13 28 17 23 9 -9 -15 -36 -172 -31
-178 2 -1 21 7 42 19 22 13 57 32 79 44 22 12 59 33 83 49 24 15 54 31 67 36
14 5 25 13 26 17 4 37 7 53 18 86 7 20 17 34 22 31 15 -9 38 27 37 59 -1 31
21 61 29 39 3 -7 12 -19 20 -28 14 -14 14 -19 0 -55 -9 -23 -11 -39 -5 -39 21
0 178 79 182 92 39 127 69 204 117 307 33 68 59 126 59 128 0 12 -112 0 -143
-16 -35 -18 -48 -16 -28 5 6 5 -13 29 -50 62 l-60 54 -34 -26 c-18 -14 -36
-26 -39 -26 -3 0 1 21 9 48 18 57 17 53 4 50 -42 -10 33 65 123 123 7 4 6 14
-1 27 -9 18 -8 23 9 32 46 25 75 111 51 149 -8 12 -18 9 -61 -17 -64 -40 -77
-40 -49 -1 32 45 37 109 10 133 -20 19 -21 18 -47 -43z m36 -21 c0 -30 -4 -40
-16 -40 -8 0 -13 -4 -9 -9 3 -5 1 -12 -4 -15 -19 -12 -20 12 -5 58 19 57 34
59 34 6z m88 -111 c-7 -21 -15 -28 -25 -24 -11 4 -13 1 -9 -11 5 -12 2 -15 -9
-10 -9 3 -13 2 -10 -3 3 -5 1 -12 -3 -15 -8 -5 -37 43 -30 49 23 20 82 53 89
50 4 -3 3 -19 -3 -36z m-152 -11 c-19 -27 -21 -19 -4 18 7 14 14 21 16 15 2
-6 -4 -21 -12 -33z m69 -69 c14 -28 25 -52 23 -53 -2 -1 -29 -21 -60 -44 -31
-23 -61 -42 -67 -42 -5 0 -11 -5 -13 -10 -2 -7 -9 -6 -20 2 -15 12 -12 20 38
87 53 72 66 98 42 86 -7 -4 -4 1 6 9 11 9 21 16 22 16 1 0 14 -23 29 -51z
m-165 -166 c0 -3 -10 -20 -23 -37 -13 -17 -36 -55 -52 -83 -15 -29 -32 -53
-36 -53 -13 0 -59 23 -59 29 0 3 18 16 40 29 23 13 57 45 76 73 32 44 54 61
54 42z m74 -154 l54 53 32 -30 33 -29 -43 -39 c-60 -54 -70 -64 -70 -72 0 -4
23 -49 50 -101 28 -52 49 -95 47 -95 -1 -1 -20 -18 -43 -39 l-40 -37 -33 82
c-47 117 -55 119 -47 16 6 -82 5 -88 -16 -102 -46 -32 -55 -23 -61 67 -4 45
-7 135 -7 201 l0 118 43 39 42 39 3 -62 3 -61 53 52z m-290 10 c-10 -16 -24
-9 -24 12 0 18 2 19 15 9 8 -7 12 -16 9 -21z m76 -48 c14 -28 12 -57 -7 -94
-14 -29 -17 -30 -23 -12 -7 19 -7 19 -14 -2 -4 -13 -11 -23 -16 -23 -5 0 -6 8
-3 18 6 15 5 16 -12 2 -17 -14 -17 -13 -11 10 7 25 7 25 -10 5 -12 -15 -18
-16 -21 -7 -4 10 -9 8 -19 -5 -12 -16 -15 -16 -24 -3 -8 12 -10 11 -10 -8 0
-21 3 -23 31 -17 l31 7 -6 -42 c-3 -23 -9 -78 -12 -121 l-7 -79 -44 0 c-40 0
-44 2 -41 23 4 32 -3 33 -115 11 l-28 -6 6 94 c11 174 11 176 55 198 22 11 43
20 47 20 5 0 2 -41 -6 -90 -8 -50 -12 -93 -9 -95 3 -3 17 -1 31 6 23 10 26 19
32 91 l7 79 24 -16 c23 -15 24 -14 44 25 20 39 40 53 40 28 0 -8 6 -6 17 5 23
23 60 22 73 -2z m500 -25 c0 -2 -20 -47 -45 -100 -24 -52 -58 -140 -75 -194
-29 -91 -35 -101 -66 -116 -19 -9 -36 -16 -39 -16 -2 0 11 44 29 97 l33 98
-37 80 c-54 118 -53 114 -24 125 66 26 71 24 78 -17 12 -68 23 -73 45 -21 11
25 28 51 38 57 17 10 63 15 63 7z m-874 -24 c-9 -26 -12 -289 -4 -297 4 -4 27
-10 53 -12 l45 -6 0 -49 0 -50 -37 7 c-76 14 -150 73 -138 110 17 50 17 166 1
216 -10 28 -16 52 -14 53 2 0 21 11 43 22 50 27 58 28 51 6z m409 -94 c-32
-25 -55 -79 -55 -127 0 -56 31 -78 64 -45 15 14 16 12 16 -25 0 -32 -4 -41
-17 -42 -10 0 -34 -2 -55 -5 -30 -4 -40 0 -57 22 -42 53 -48 137 -14 192 7 12
18 20 24 17 5 -4 12 1 15 9 3 9 14 16 24 16 11 0 25 15 35 38 32 67 40 71 43
18 3 -41 0 -50 -23 -68z m-8 -100 c-2 -13 -4 -5 -4 17 -1 22 1 32 4 23 2 -10
2 -28 0 -40z m69 -149 c4 -8 9 -8 17 0 6 6 19 11 29 11 14 0 16 -7 13 -37 -2
-24 -8 -37 -16 -35 -7 2 -16 -3 -20 -10 -7 -10 -9 -10 -9 2 0 10 -7 7 -20 -10
-16 -21 -22 -23 -39 -13 -16 10 -20 9 -24 -6 -2 -11 -17 -21 -33 -24 -16 -3
-39 -8 -51 -12 -16 -5 -22 -2 -26 12 -3 12 -5 9 -6 -9 -1 -30 -21 -39 -22 -10
0 13 -2 12 -9 -5 -16 -39 -22 -25 -15 30 9 62 22 90 40 84 7 -3 18 0 24 6 8 8
11 2 12 -23 1 -35 1 -35 8 -6 6 31 35 56 48 42 4 -4 0 -13 -10 -20 -18 -14
-24 -32 -7 -21 14 9 12 -9 -2 -24 -11 -10 -8 -12 12 -9 21 2 26 9 28 41 2 20
7 37 13 37 5 0 9 -6 9 -12 0 -7 7 -2 16 10 17 24 29 28 40 11z m-186 -9 c-8
-5 -26 -9 -40 -9 l-25 1 25 8 c14 4 32 8 40 9 13 1 13 0 0 -9z m-73 -16 c-3
-4 -21 -8 -39 -10 -24 -3 -29 -1 -18 6 16 11 67 14 57 4z m-29 -32 c13 12 15
8 10 -34 -4 -36 -2 -48 8 -48 9 0 11 -6 7 -17 -6 -17 -29 -37 -36 -31 -1 2
-16 -5 -31 -15 l-28 -19 7 74 c5 50 12 77 23 86 11 8 18 9 20 2 3 -7 9 -7 20
2z m287 -74 c-8 -37 -12 -44 -21 -35 -9 9 6 67 18 67 6 0 7 -13 3 -32z m-42
-35 c-5 -48 -23 -85 -23 -47 0 36 13 94 20 94 4 0 5 -21 3 -47z m-29 -5 c-8
-61 -12 -71 -28 -65 -8 3 -16 -2 -19 -15 -3 -11 -10 -17 -15 -14 -5 3 -21 -3
-35 -14 -31 -25 -44 -25 -50 -2 -3 9 -5 2 -6 -15 -1 -35 -16 -45 -24 -16 -4
14 -5 12 -6 -4 0 -13 -6 -23 -11 -23 -17 0 -1 123 18 137 8 7 19 10 23 7 5 -3
9 0 9 5 0 6 5 11 10 11 6 0 10 -15 10 -32 0 -25 3 -29 10 -18 5 8 10 25 10 37
0 12 9 27 20 33 19 10 20 7 22 -37 l1 -48 6 49 c6 52 26 73 34 34 4 -20 4 -20
6 5 0 15 6 27 11 27 6 0 8 -17 4 -42z m56 -33 c-7 -9 -15 -13 -17 -11 -7 7 7
26 19 26 6 0 6 -6 -2 -15z"/>
<path d="M767 403 c-4 -3 -7 -15 -7 -25 0 -26 24 -17 28 10 3 21 -8 29 -21 15z"/>
<path d="M483 349 c-15 -15 -17 -33 -3 -24 18 11 11 -17 -7 -31 -17 -13 -17
-13 -1 -14 18 0 33 35 26 65 -2 13 -5 14 -15 4z"/>
<path d="M625 1050 c-3 -6 1 -13 10 -16 19 -8 30 0 20 15 -8 14 -22 14 -30 1z"/>
<path d="M680 1025 c0 -10 7 -15 18 -13 21 4 19 22 -2 26 -10 2 -16 -3 -16
-13z"/>
</g>
</svg>
