<svg id="Capa_1" data-name="Capa 1" xmlns="http://www.w3.org/2000/svg" viewBox="0 0 428.14 301.64"><defs><style>.cls-1{fill:#fff;}.cls-2,.cls-3{fill:#a8cf45;}.cls-3{fill-rule:evenodd;}</style></defs><title>logo blanco</title><path class="cls-1" d="M386.17,251.89q0,10.55,4.61,15.77a15.45,15.45,0,0,0,21.8,1.41,15.64,15.64,0,0,0,1.41-1.41q4.61-5.27,4.61-16,0-10.18-4.64-15.41a15.47,15.47,0,0,0-21.84-1.34,16.94,16.94,0,0,0-1.34,1.34q-4.61,5.22-4.61,15.74m-9.54,0q0-15.24,8.5-22.57a25.59,25.59,0,0,1,17.29-6.1q11.32,0,18.53,7.42t7.19,20.47c0,7.07-1.06,12.61-3.18,16.66a22.59,22.59,0,0,1-9.27,9.43,27,27,0,0,1-13.27,3.35q-11.55,0-18.67-7.38t-7.12-21.4Z"/><path class="cls-1" d="M349.57,279.37V231.88h0v-7.51a8.45,8.45,0,0,1,8.37,7.51v.33h0v.58q3.19-5.85,5.93-7.72a10.37,10.37,0,0,1,6-1.87,18.51,18.51,0,0,1,9.59,3v.07a27.45,27.45,0,0,0-5.07,7.66,13,13,0,0,0-5-1,8.78,8.78,0,0,0-5.46,1.84,10,10,0,0,0-3.44,5.09,35.68,35.68,0,0,0-1.56,10.86v28.74Z"/><path class="cls-1" d="M304.48,250.93q0,10.79,4.29,15.74a14.23,14.23,0,0,0,20.07,1.5,13.28,13.28,0,0,0,1.5-1.5q4.35-4.92,4.35-15.47c0-6.71-1.51-11.78-4.49-15.19a13.88,13.88,0,0,0-10.79-5.1,13.53,13.53,0,0,0-10.58,5q-4.35,5-4.35,15m-7.63,33,9,1.27a8.6,8.6,0,0,0,3.16,6.11c2.31,1.71,5.48,2.58,9.49,2.58,4.31,0,7.64-.87,10-2.58a12.64,12.64,0,0,0,4.77-7.22q.72-2.83.67-11.93a19.19,19.19,0,0,1-15.22,7.21c-7.56,0-13.43-2.72-17.56-8.18a31.58,31.58,0,0,1-6.22-19.59,36.58,36.58,0,0,1,2.85-14.52A22.66,22.66,0,0,1,306,226.82a22.19,22.19,0,0,1,12.71-3.62,19.62,19.62,0,0,1,16,7.92h0a8.46,8.46,0,0,1,8.26-6.75h.33v47.49q0,12.86-2.62,18.2a19.11,19.11,0,0,1-8.27,8.46,28.78,28.78,0,0,1-13.93,3.11q-9.83,0-15.86-4.42c-4-2.93-5.91-7.37-5.77-13.28Z"/><path class="cls-1" d="M280.53,251.81q-5.08,2.07-15.26,3.5a35.24,35.24,0,0,0-8.16,1.86,8,8,0,0,0-3.67,3A8.12,8.12,0,0,0,255,270.75c1.89,1.64,4.64,2.47,8.26,2.47a19.15,19.15,0,0,0,9.6-2.35,14.47,14.47,0,0,0,6.16-6.39q1.5-3.15,1.5-9.27ZM261,280.53q-9.06,0-13.94-4.41a14.5,14.5,0,0,1-4.87-11.27,15.27,15.27,0,0,1,6.66-12.7,23,23,0,0,1,6.71-3.05,70.83,70.83,0,0,1,8.3-1.4,87.4,87.4,0,0,0,16.64-3.2v-2.42c0-3.78-.88-6.44-2.65-8q-3.57-3.15-10.63-3.14-6.6,0-9.73,2.31c-2.1,1.54-3.64,4.26-4.65,8.18l-9.11-1.27a22.5,22.5,0,0,1,4.1-9.47,18,18,0,0,1,8.26-5.55,37,37,0,0,1,12.51-1.94,33.15,33.15,0,0,1,11.48,1.66,15.27,15.27,0,0,1,6.48,4.17,15,15,0,0,1,2.92,6.36A53.89,53.89,0,0,1,290,244v12.36C287.67,273.61,277.27,280.53,261,280.53Z"/><path class="cls-1" d="M213.45,279.37l-20.75-55c5.76-.21,10.09,1.5,12.18,6.18l9.56,26.76c1.27,3.55,2.46,7.24,3.53,11.07.83-2.89,2-6.37,3.48-10.45l12.23-33.56h9.57l-20.82,55Z"/><path class="cls-1" d="M152.33,251.89q0,10.55,4.61,15.77a15.45,15.45,0,0,0,21.8,1.41,15.64,15.64,0,0,0,1.41-1.41q4.6-5.27,4.61-16,0-10.18-4.65-15.41a15.46,15.46,0,0,0-21.82-1.35,14.33,14.33,0,0,0-1.35,1.35q-4.62,5.22-4.61,15.74m-9.54,0q0-15.24,8.49-22.57a25.63,25.63,0,0,1,17.3-6.1q11.31,0,18.53,7.42t7.18,20.47c0,7.07-1.06,12.61-3.18,16.66a22.42,22.42,0,0,1-9.27,9.43,27,27,0,0,1-13.26,3.35q-11.57,0-18.67-7.38t-7.12-21.4Z"/><path class="cls-1" d="M92.06,224.37h8.37v7.8q6-9,17.47-9A23.12,23.12,0,0,1,127,225a14.41,14.41,0,0,1,6.24,4.69,17.78,17.78,0,0,1,2.89,6.87,54.89,54.89,0,0,1,.51,9.06v33.77h-9.32V246a25,25,0,0,0-1.08-8.51,9,9,0,0,0-3.85-4.51,12.37,12.37,0,0,0-6.48-1.67A15,15,0,0,0,105.69,235c-2.88,2.5-4.31,7.29-4.31,14.32V279.5a10,10,0,0,1-9.3-10V224.36"/><path class="cls-2" d="M210.18,63.88h2.32V86.31h-1.93l-5-15.41.15,5.67v9.74h-2.45V63.88h2l5.2,15.25-.26-6.47Zm12.22,0h2.33V86.31H222.8L217.75,70.9l.16,5.67v9.74h-2.45V63.88h2l5.19,15.25-.26-6.47Zm11.26,5.93a9.59,9.59,0,0,0-.33-3.06,1.34,1.34,0,0,0-1.39-.89,1.46,1.46,0,0,0-1.46.92,8.46,8.46,0,0,0-.39,3V79.89a11.26,11.26,0,0,0,.34,3.47,1.59,1.59,0,0,0,2.9,0,11.9,11.9,0,0,0,.33-3.47Zm-6.21.16c0-2.56.44-4.31,1.36-5.25A4.16,4.16,0,0,1,232,63.59c2,0,3.29.81,3.84,2.48a12.26,12.26,0,0,1,.49,3.9v9.89a10.19,10.19,0,0,1-1,5.1,4.51,4.51,0,0,1-6.89,0,9.88,9.88,0,0,1-1-5.1Zm18.23-6.09h2.48l-3.4,22.43h-3.08L238,63.88h2.53L242,73.36l1.28,8.36h0l1.12-8.36Zm6.23,16h3.45L253.58,68h0Zm0-16h3.16l3.71,22.43H256.3L255.7,82h-4.08l-.57,4.28h-2.53Zm19.78,0h2.64V86.31h-2.64Zm7.58-3.19,5.36-2.22V61l-5.36,1.1Zm4.21,9.12a9.57,9.57,0,0,0-.34-3.06,1.34,1.34,0,0,0-1.39-.89,1.46,1.46,0,0,0-1.46.92,8.46,8.46,0,0,0-.39,3V79.89a11.26,11.26,0,0,0,.34,3.47,1.59,1.59,0,0,0,2.9,0,11.57,11.57,0,0,0,.34-3.47Zm-6.22.16q0-3.84,1.36-5.25a4.15,4.15,0,0,1,3.16-1.13c2,0,3.29.81,3.84,2.48a12.26,12.26,0,0,1,.49,3.9v9.89a10.19,10.19,0,0,1-1,5.1,3.71,3.71,0,0,1-3.45,1.62A3.8,3.8,0,0,1,278.28,85a9.88,9.88,0,0,1-1-5.1Zm18.52-6.09h2.32V86.31h-1.9l-5-15.41.16,5.67v9.74H288.9V63.88h2l5.2,15.25-.26-6.47Zm-100,27.5h7.4v2.2h-2.3v20.24H198.2V93.58h-2.46Zm8.88,0h6.72v2.2h-4.08v7.65h3.87v2.19h-3.87v8.21h4.13v2.19h-6.77Zm8.9,6.48a11.91,11.91,0,0,1,.42-3.76,4.8,4.8,0,0,1,.91-1.75A4,4,0,0,1,218,91.1a3.6,3.6,0,0,1,3.76,2.56,13.22,13.22,0,0,1,.47,3.91v2.48h-2.59v-2.5a11.29,11.29,0,0,0-.23-2.9,2.05,2.05,0,0,0-.57-1,1.32,1.32,0,0,0-.84-.23,1.44,1.44,0,0,0-1.46,1,9.37,9.37,0,0,0-.39,3.16v9.71a11.24,11.24,0,0,0,.36,3.56,1.48,1.48,0,0,0,1.88.92,1.5,1.5,0,0,0,.92-.92,12.69,12.69,0,0,0,.33-3.58v-2.48h2.62v2.45a10.6,10.6,0,0,1-1,5.2,3.52,3.52,0,0,1-3.34,1.67,3.63,3.63,0,0,1-3.42-1.72,10.3,10.3,0,0,1-1-5.18Zm18.18-6.48H234v22.44h-1.94l-5-15.41.16,5.67v9.74h-2.46V91.38h2l5.2,15.26-.26-6.48ZM243,97.31a9.2,9.2,0,0,0-.34-3,1.33,1.33,0,0,0-1.38-.89,1.46,1.46,0,0,0-1.46.91,8.25,8.25,0,0,0-.4,3v10.08a11.67,11.67,0,0,0,.34,3.48,1.44,1.44,0,0,0,1.47.94,1.41,1.41,0,0,0,1.43-.94,11.35,11.35,0,0,0,.34-3.48Zm-6.21.16c0-2.56.44-4.31,1.36-5.25a4.13,4.13,0,0,1,3.15-1.12c2,0,3.3.81,3.85,2.48a12.48,12.48,0,0,1,.49,3.89v9.9a10.07,10.07,0,0,1-1,5.09,3.74,3.74,0,0,1-3.45,1.62,3.78,3.78,0,0,1-3.45-1.62,9.84,9.84,0,0,1-1-5.09Zm11.57-6.09H251v20.25h4.15v2.19h-6.79Zm9.88-3.18,4.69-2a3.31,3.31,0,0,1-1.6-1.4,10.26,10.26,0,0,1-1-5.17V70.36a12.21,12.21,0,0,1,.42-3.76,4.68,4.68,0,0,1,.92-1.75,4,4,0,0,1,3.16-1.26,3.63,3.63,0,0,1,3.76,2.56,13.33,13.33,0,0,1,.47,3.92v2.48h-2.59V70a12.18,12.18,0,0,0-.23-2.89,1.85,1.85,0,0,0-.58-1,1.35,1.35,0,0,0-.83-.24,1.44,1.44,0,0,0-1.47,1A9.37,9.37,0,0,0,263,70v9.72a11.19,11.19,0,0,0,.37,3.55,1.46,1.46,0,0,0,1.83,1,1.44,1.44,0,0,0,1-1,12.34,12.34,0,0,0,.34-3.58V77.25H269v2.46a10.6,10.6,0,0,1-1,5.2,3.52,3.52,0,0,1-3.34,1.67,5.74,5.74,0,0,1-1.17-.12v2.08l-5.35,1.09Zm4.2,9.11a9.2,9.2,0,0,0-.34-3,1.33,1.33,0,0,0-1.38-.89,1.46,1.46,0,0,0-1.46.91,8.25,8.25,0,0,0-.4,3v10.08a11.67,11.67,0,0,0,.34,3.48,1.44,1.44,0,0,0,1.47.94,1.41,1.41,0,0,0,1.43-.94,11.35,11.35,0,0,0,.34-3.48Zm-6.21.16c0-2.56.44-4.31,1.36-5.25a4.13,4.13,0,0,1,3.15-1.12c2,0,3.3.81,3.85,2.48a12.48,12.48,0,0,1,.49,3.89v9.9a9.94,9.94,0,0,1-1,5.09,3.72,3.72,0,0,1-3.44,1.62,3.78,3.78,0,0,1-3.45-1.62,9.84,9.84,0,0,1-1-5.09Zm11.33.26c0-3.32.79-5.35,2.33-6.16a5.14,5.14,0,0,1,2-.47A3.69,3.69,0,0,1,276,94.28a19.58,19.58,0,0,1,.26,3.5v1.73H273.7V96.58a6.2,6.2,0,0,0-.34-2.45A1.37,1.37,0,0,0,272,93.4a1.48,1.48,0,0,0-1.44.91,8.75,8.75,0,0,0-.42,3.29v9.45a12.08,12.08,0,0,0,.37,3.74,1.41,1.41,0,0,0,1.46,1,1.48,1.48,0,0,0,1.49-1.07,12.54,12.54,0,0,0,.39-3.76V104H272v-2h4.26v11.78h-1.39l-.36-1.73a2.85,2.85,0,0,1-2.88,1.94,3.43,3.43,0,0,1-3.13-1.65,10.23,10.23,0,0,1-1-5.25Zm11.75-6.35H282v22.44h-2.64Zm5.58,6.48a11.91,11.91,0,0,1,.42-3.76,4.8,4.8,0,0,1,.91-1.75,4,4,0,0,1,3.16-1.25,3.6,3.6,0,0,1,3.76,2.56,13.22,13.22,0,0,1,.47,3.91v2.48H291v-2.5a11.29,11.29,0,0,0-.23-2.9,2,2,0,0,0-.58-1,1.3,1.3,0,0,0-.83-.23,1.42,1.42,0,0,0-1.46,1,9.37,9.37,0,0,0-.4,3.16v9.71a11.25,11.25,0,0,0,.37,3.56,1.47,1.47,0,0,0,2.79,0,12.34,12.34,0,0,0,.34-3.58v-2.48h2.62v2.45a10.6,10.6,0,0,1-1,5.2,3.52,3.52,0,0,1-3.34,1.67,3.63,3.63,0,0,1-3.42-1.72,10.3,10.3,0,0,1-1-5.18Zm13.51,9.53h3.45L300,95.54h0Zm0-16h3.16l3.7,22.44h-2.48l-.62-4.28h-4.08l-.57,4.28H295ZM199.6,134.9h3.45L201.28,123h0Zm0-16h3.16l3.71,22.43H204l-.63-4.28H199.3l-.58,4.28h-2.53Zm15,6.32a9.76,9.76,0,0,0-.36-3.27,1.39,1.39,0,0,0-1.44-1h-1.67v9.35h1.62a1.44,1.44,0,0,0,1.49-1,11.76,11.76,0,0,0,.36-3.69Zm-6.11-6.32H213c2,0,3.24.81,3.76,2.45a12.77,12.77,0,0,1,.47,3.64,29.76,29.76,0,0,1-.11,3.13,6,6,0,0,1-1.2,3.34,3.77,3.77,0,0,1-2.92,1.07h-1.88v8.8h-2.64Zm10.64,0h2.64v20.24h4.15v2.19h-6.79Zm8.59,0h2.63v22.43H227.7Zm5.57,6.48a11.91,11.91,0,0,1,.42-3.76,4.52,4.52,0,0,1,.91-1.75,4.08,4.08,0,0,1,3.16-1.26,3.62,3.62,0,0,1,3.76,2.56,13.33,13.33,0,0,1,.47,3.92v2.48H239.4v-2.51a11.29,11.29,0,0,0-.23-2.9,2.05,2.05,0,0,0-.57-1,1.4,1.4,0,0,0-.84-.24,1.42,1.42,0,0,0-1.46,1,9.37,9.37,0,0,0-.39,3.16v9.72a11.21,11.21,0,0,0,.36,3.55,1.46,1.46,0,0,0,1.83,1,1.44,1.44,0,0,0,1-1,12.34,12.34,0,0,0,.34-3.58v-2.48H242v2.46a10.56,10.56,0,0,1-1,5.19,3.48,3.48,0,0,1-3.34,1.67,3.63,3.63,0,0,1-3.42-1.72,10.26,10.26,0,0,1-1-5.17Zm13.51,9.53h3.45L248.45,123h0Zm0-16H250l3.71,22.43h-2.49l-.62-4.28h-4.08l-.57,4.28h-2.53Zm14.95,6a6.86,6.86,0,0,0-.5-3,1.72,1.72,0,0,0-1.64-.91h-1.36v18.2h1.36a2.18,2.18,0,0,0,1.2-.29c.63-.44.94-1.67.94-3.65Zm-6.11-6h4.23c1.7,0,2.9.52,3.52,1.57a8.57,8.57,0,0,1,1,4.52v9.84a9.05,9.05,0,0,1-1.07,5,4,4,0,0,1-3.56,1.51h-4.12Zm13.67,16h3.45L271,123h0Zm0-16h3.16l3.7,22.43h-2.48l-.62-4.28H269l-.57,4.28h-2.54ZM199.6,162.4H203l-1.77-11.85h0Zm0-16h3.16l3.71,22.44H204l-.63-4.28H199.3l-.58,4.28H196.2Zm8.84,0h2.64v20.25h4.15v2.19h-6.79Zm17.2,16h3.44l-1.77-11.85h0Zm0-16h3.16l3.71,22.44H230l-.63-4.28h-4.07l-.58,4.28h-2.53Zm8.34,6.35c0-3.32.78-5.35,2.32-6.16a5.14,5.14,0,0,1,2-.47,3.67,3.67,0,0,1,4.2,3.18,18.7,18.7,0,0,1,.27,3.5v1.73H240.2V151.6a6.38,6.38,0,0,0-.33-2.45,1.38,1.38,0,0,0-1.39-.73,1.5,1.5,0,0,0-1.44.91,9,9,0,0,0-.41,3.29v9.45a12.39,12.39,0,0,0,.36,3.74,1.41,1.41,0,0,0,1.47,1,1.47,1.47,0,0,0,1.48-1.07,12.54,12.54,0,0,0,.4-3.76v-2.92h-1.83v-2h4.26v11.78h-1.39l-.37-1.72a2.84,2.84,0,0,1-2.87,1.93A3.43,3.43,0,0,1,235,167.4a10.23,10.23,0,0,1-1-5.25Zm17.65-.86c0-1.72-.15-2.72-.47-3a1.88,1.88,0,0,0-1.33-.4H248.2v7.58h1.7a1.66,1.66,0,0,0,1.12-.32,1.6,1.6,0,0,0,.5-1.12,15.89,15.89,0,0,0,.15-2.58Zm-6.11-5.49h4.73a4.21,4.21,0,0,1,2.87.81,4.33,4.33,0,0,1,1,2.83c0,.54.08,1.38.08,2.55a7.93,7.93,0,0,1-.45,2.9,2.41,2.41,0,0,1-1.59,1.52,1.75,1.75,0,0,1,1.28.89,6.48,6.48,0,0,1,.6,2.37,43.33,43.33,0,0,1,.18,4.83,15.61,15.61,0,0,0,.21,3.74h-2.64a59.77,59.77,0,0,1-.21-7.57c0-1.6-.15-2.54-.47-2.8a2.15,2.15,0,0,0-1.41-.39L248.2,158v10.84h-2.64ZM263,152.32a9.2,9.2,0,0,0-.34-3,1.33,1.33,0,0,0-1.38-.89,1.46,1.46,0,0,0-1.47.91,8.46,8.46,0,0,0-.39,3V162.4a11.67,11.67,0,0,0,.34,3.48,1.42,1.42,0,0,0,1.47.94,1.39,1.39,0,0,0,1.43-.94,11.35,11.35,0,0,0,.34-3.48Zm-6.21.16c0-2.56.44-4.31,1.35-5.25a4.19,4.19,0,0,1,3.16-1.12c2,0,3.29.81,3.84,2.48a11.89,11.89,0,0,1,.5,3.89v9.9a9.94,9.94,0,0,1-1,5.09,3.72,3.72,0,0,1-3.44,1.62,3.78,3.78,0,0,1-3.45-1.62,9.84,9.84,0,0,1-1-5.09Zm-59.36-88.6h2.64V86.31h-2.64Z"/><path class="cls-3" d="M84.15,279.37H69.64v-28q0-8.91-.94-11.5a8.09,8.09,0,0,0-3.06-4.06,8.65,8.65,0,0,0-5.08-1.45,11.82,11.82,0,0,0-6.84,2.07,10.34,10.34,0,0,0-4.15,5.47c-.76,2.28-1.13,6.48-1.13,12.63V279.4a14.56,14.56,0,0,1-14.39-14.5v-6.35h-.13V224.37H47.38v8.07q7.23-9.24,18.21-9.24a22.11,22.11,0,0,1,8.83,1.73,14.8,14.8,0,0,1,6.06,4.42,15.81,15.81,0,0,1,2.86,6.11,44.48,44.48,0,0,1,.81,9.77Zm-74.8-14.5v-40.5H23.86v55h0A14.54,14.54,0,0,1,9.35,264.87Zm137-119.43c0-88.66,4.43-153.19-123.74-123.74C-5.61,146.84,57.88,145.44,146.35,145.44Zm-29-137.23c80.92,0,33.12,126.59,57.32,196.44l-15.4-37.27c-47.83,0-150.13,18-150.13-51L0,0Zm-71,34.27c18.37,32.05,48.07,64.67,79.27,84.42C89.63,96.16,70.7,69,46.35,42.48ZM9.35,217V203.49H23.86V217Z"/></svg>