<svg id="Capa_1" data-name="Capa 1" xmlns="http://www.w3.org/2000/svg" viewBox="0 0 428.14 301.63"><defs><style>.cls-1{fill:#003016;}.cls-2,.cls-3{fill:#a8cf45;}.cls-3{fill-rule:evenodd;}</style></defs><title>logo</title><path class="cls-1" d="M386.17,253.89q0,10.55,4.61,15.77a15.45,15.45,0,0,0,23.21,0q4.61-5.26,4.61-16,0-10.18-4.64-15.41a15.47,15.47,0,0,0-23.18,0q-4.61,5.22-4.61,15.74m-9.54,0q0-15.24,8.5-22.57a25.57,25.57,0,0,1,17.29-6.1q11.32,0,18.53,7.42t7.19,20.47c0,7.07-1.06,12.61-3.18,16.66a22.53,22.53,0,0,1-9.27,9.43,27,27,0,0,1-13.27,3.35q-11.55,0-18.67-7.38T376.63,253.87Z" transform="translate(0 -2)"/><path class="cls-1" d="M349.57,281.37V233.88h0v-7.51a8.45,8.45,0,0,1,8.37,7.51v.33h0v.58q3.19-5.85,5.93-7.72a10.36,10.36,0,0,1,6-1.87,18.5,18.5,0,0,1,9.59,3l0,.07a27.61,27.61,0,0,0-5.07,7.66,13,13,0,0,0-5-1,8.82,8.82,0,0,0-5.46,1.84,10,10,0,0,0-3.44,5.09,35.67,35.67,0,0,0-1.56,10.86v28.74Z" transform="translate(0 -2)"/><path class="cls-1" d="M304.48,252.93q0,10.79,4.29,15.74a14.23,14.23,0,0,0,21.57,0q4.35-4.92,4.35-15.47c0-6.71-1.51-11.78-4.49-15.19a13.86,13.86,0,0,0-10.79-5.1,13.52,13.52,0,0,0-10.58,5q-4.35,5-4.35,15m-7.63,33,9,1.27a8.62,8.62,0,0,0,3.16,6.11c2.31,1.71,5.48,2.58,9.49,2.58,4.31,0,7.64-.87,10-2.58a12.67,12.67,0,0,0,4.77-7.22q.72-2.83.67-11.93a19.16,19.16,0,0,1-15.22,7.21c-7.56,0-13.43-2.72-17.56-8.18s-6.22-12-6.22-19.59a36.69,36.69,0,0,1,2.85-14.52A22.69,22.69,0,0,1,306,228.82a22.24,22.24,0,0,1,12.71-3.62,19.62,19.62,0,0,1,16,7.92v0h0v0a8.46,8.46,0,0,1,8.26-6.75h.33v47.49q0,12.86-2.62,18.2a19.12,19.12,0,0,1-8.27,8.46,28.75,28.75,0,0,1-13.93,3.11q-9.82,0-15.86-4.42C298.65,296.28,296.71,291.84,296.85,285.93Z" transform="translate(0 -2)"/><path class="cls-1" d="M280.53,253.81q-5.08,2.07-15.26,3.5a35.3,35.3,0,0,0-8.16,1.86,8.06,8.06,0,0,0-3.67,3A8.12,8.12,0,0,0,255,272.75c1.89,1.64,4.64,2.47,8.26,2.47a19.24,19.24,0,0,0,9.6-2.35,14.44,14.44,0,0,0,6.16-6.39c1-2.1,1.5-5.19,1.5-9.27ZM261,282.53q-9.06,0-13.94-4.41a14.49,14.49,0,0,1-4.87-11.27,15.26,15.26,0,0,1,6.66-12.7,22.82,22.82,0,0,1,6.71-3.05,70.29,70.29,0,0,1,8.3-1.4c7.53-.88,13.09-2,16.64-3.2,0-1.27,0-2.08,0-2.42,0-3.78-.88-6.44-2.65-8q-3.57-3.15-10.63-3.14-6.6,0-9.73,2.31c-2.1,1.54-3.64,4.26-4.65,8.18l-9.11-1.27a22.5,22.5,0,0,1,4.1-9.47,18.1,18.1,0,0,1,8.26-5.55,37,37,0,0,1,12.51-1.94,33.16,33.16,0,0,1,11.48,1.66,15.22,15.22,0,0,1,6.48,4.17,15,15,0,0,1,2.92,6.36A53.79,53.79,0,0,1,290,246v12.36C287.67,275.61,277.27,282.53,261,282.53Z" transform="translate(0 -2)"/><path class="cls-1" d="M213.45,281.37l-20.75-55c5.76-.21,10.09,1.5,12.18,6.18l9.56,26.76c1.27,3.55,2.46,7.24,3.53,11.07.83-2.89,2-6.37,3.48-10.45l12.23-33.56h9.57l-20.82,55Z" transform="translate(0 -2)"/><path class="cls-1" d="M152.33,253.89q0,10.55,4.61,15.77a15.45,15.45,0,0,0,23.21,0q4.6-5.26,4.61-16,0-10.18-4.65-15.41a15.46,15.46,0,0,0-23.17,0q-4.62,5.22-4.61,15.74m-9.54,0q0-15.24,8.49-22.57a25.6,25.6,0,0,1,17.3-6.1q11.31,0,18.53,7.42t7.18,20.47c0,7.07-1.06,12.61-3.18,16.66a22.47,22.47,0,0,1-9.27,9.43,26.94,26.94,0,0,1-13.26,3.35q-11.57,0-18.67-7.38T142.79,253.87Z" transform="translate(0 -2)"/><path class="cls-1" d="M92.06,226.37h8.37v7.8q6-9,17.47-9A23.05,23.05,0,0,1,127,227a14.45,14.45,0,0,1,6.24,4.69,17.84,17.84,0,0,1,2.89,6.87,54.23,54.23,0,0,1,.51,9.06v33.77h-9.32V248a24.91,24.91,0,0,0-1.08-8.51,9,9,0,0,0-3.85-4.51,12.33,12.33,0,0,0-6.48-1.67A15,15,0,0,0,105.69,237c-2.88,2.5-4.31,7.29-4.31,14.32V281.5a10,10,0,0,1-9.3-10q0-22.54,0-45.14" transform="translate(0 -2)"/><path class="cls-2" d="M210.18,65.88h2.32V88.31h-1.93l-5-15.41.15,5.67v9.74h-2.45V65.88h2l5.2,15.25-.26-6.47Zm12.22,0h2.33V88.31H222.8L217.75,72.9l.16,5.67v9.74h-2.45V65.88h2l5.19,15.25-.26-6.47Zm11.26,5.93a9.58,9.58,0,0,0-.33-3.06,1.34,1.34,0,0,0-1.39-.89,1.46,1.46,0,0,0-1.46.92,8.38,8.38,0,0,0-.39,3V81.89a11.16,11.16,0,0,0,.34,3.47,1.59,1.59,0,0,0,2.9,0,11.67,11.67,0,0,0,.33-3.47Zm-6.21.16c0-2.56.44-4.31,1.36-5.25A4.15,4.15,0,0,1,232,65.59c2,0,3.29.81,3.84,2.48a12.23,12.23,0,0,1,.49,3.9v9.89a10.15,10.15,0,0,1-1,5.1,3.73,3.73,0,0,1-3.45,1.62A3.78,3.78,0,0,1,228.44,87a9.84,9.84,0,0,1-1-5.1Zm18.23-6.09h2.48l-3.4,22.43h-3.08L238,65.88h2.53L242,75.36l1.28,8.36h0l1.12-8.36Zm6.23,16h3.45L253.58,70h0Zm0-16h3.16l3.71,22.43h-2.48L255.7,84h-4.08l-.57,4.28h-2.53Zm19.78,0h2.64V88.31h-2.64Zm7.58-3.19,5.36-2.22V63l-5.36,1.1Zm4.21,9.12a9.52,9.52,0,0,0-.34-3.06,1.34,1.34,0,0,0-1.39-.89,1.46,1.46,0,0,0-1.46.92,8.38,8.38,0,0,0-.39,3V81.89a11.16,11.16,0,0,0,.34,3.47,1.59,1.59,0,0,0,2.9,0,11.57,11.57,0,0,0,.34-3.47Zm-6.22.16q0-3.84,1.36-5.25a4.15,4.15,0,0,1,3.16-1.13c2,0,3.29.81,3.84,2.48a12.23,12.23,0,0,1,.49,3.9v9.89a10.15,10.15,0,0,1-1,5.1,3.71,3.71,0,0,1-3.45,1.62A3.78,3.78,0,0,1,278.28,87a9.84,9.84,0,0,1-1-5.1Zm18.52-6.09h2.32V88.31H296.2l-5-15.41.16,5.67v9.74h-2.46V65.88h2l5.2,15.25-.26-6.47ZM195.74,93.38h7.4v2.2h-2.3v20.24H198.2V95.58h-2.46Zm8.88,0h6.72v2.2h-4.08v7.65h3.87v2.19h-3.87v8.21h4.13v2.19h-6.77Zm8.9,6.48a12,12,0,0,1,.42-3.76,4.7,4.7,0,0,1,.91-1.75A4,4,0,0,1,218,93.1a3.6,3.6,0,0,1,3.76,2.56,13.4,13.4,0,0,1,.47,3.91v2.48h-2.59v-2.5a11.38,11.38,0,0,0-.23-2.9,2,2,0,0,0-.57-1,1.37,1.37,0,0,0-.84-.23,1.43,1.43,0,0,0-1.46,1,9.41,9.41,0,0,0-.39,3.16v9.71a11.3,11.3,0,0,0,.36,3.56,1.48,1.48,0,0,0,2.8,0,12.75,12.75,0,0,0,.33-3.58v-2.48h2.62v2.45a10.57,10.57,0,0,1-1,5.2,3.5,3.5,0,0,1-3.34,1.67,3.63,3.63,0,0,1-3.42-1.72,10.28,10.28,0,0,1-1-5.18Zm18.18-6.48H234v22.44h-1.94l-5-15.41.16,5.67v9.74h-2.46V93.38h2l5.2,15.26-.26-6.48ZM243,99.31a9.2,9.2,0,0,0-.34-3,1.32,1.32,0,0,0-1.38-.89,1.46,1.46,0,0,0-1.46.91,8.33,8.33,0,0,0-.4,3v10.08a11.56,11.56,0,0,0,.34,3.48,1.44,1.44,0,0,0,1.47.94,1.4,1.4,0,0,0,1.43-.94,11.36,11.36,0,0,0,.34-3.48Zm-6.21.16c0-2.56.44-4.31,1.36-5.25a4.14,4.14,0,0,1,3.15-1.12c2,0,3.3.81,3.85,2.48a12.41,12.41,0,0,1,.49,3.89v9.9a10.11,10.11,0,0,1-1,5.09,3.73,3.73,0,0,1-3.45,1.62,3.78,3.78,0,0,1-3.45-1.62,9.82,9.82,0,0,1-1-5.09Zm11.57-6.09H251v20.25h4.15v2.19h-6.79Zm9.88-3.18,4.69-2a3.3,3.3,0,0,1-1.6-1.4,10.21,10.21,0,0,1-1-5.17V72.36a12.23,12.23,0,0,1,.42-3.76,4.62,4.62,0,0,1,.92-1.75,4,4,0,0,1,3.16-1.26,3.63,3.63,0,0,1,3.76,2.56,13.52,13.52,0,0,1,.47,3.92v2.48h-2.59V72a11.83,11.83,0,0,0-.23-2.89,1.89,1.89,0,0,0-.58-1,1.34,1.34,0,0,0-.83-.24,1.44,1.44,0,0,0-1.47,1,9.45,9.45,0,0,0-.39,3.16v9.72a11.1,11.1,0,0,0,.37,3.55,1.46,1.46,0,0,0,2.79,0,12.24,12.24,0,0,0,.34-3.58V79.25H269v2.46a10.61,10.61,0,0,1-1,5.2,3.5,3.5,0,0,1-3.34,1.67,5.32,5.32,0,0,1-1.17-.12v2.08l-5.35,1.09Zm4.2,9.11a9.2,9.2,0,0,0-.34-3,1.32,1.32,0,0,0-1.38-.89,1.46,1.46,0,0,0-1.46.91,8.33,8.33,0,0,0-.4,3v10.08a11.56,11.56,0,0,0,.34,3.48,1.44,1.44,0,0,0,1.47.94,1.4,1.4,0,0,0,1.43-.94,11.36,11.36,0,0,0,.34-3.48Zm-6.21.16c0-2.56.44-4.31,1.36-5.25a4.14,4.14,0,0,1,3.15-1.12c2,0,3.3.81,3.85,2.48a12.41,12.41,0,0,1,.49,3.89v9.9a10,10,0,0,1-1,5.09,3.71,3.71,0,0,1-3.44,1.62,3.78,3.78,0,0,1-3.45-1.62,9.82,9.82,0,0,1-1-5.09Zm11.33.26c0-3.32.79-5.35,2.33-6.16a5.08,5.08,0,0,1,2-.47A3.68,3.68,0,0,1,276,96.28a19.46,19.46,0,0,1,.26,3.5v1.73h-2.56V98.58a6.24,6.24,0,0,0-.34-2.45A1.38,1.38,0,0,0,272,95.4a1.47,1.47,0,0,0-1.44.91,8.73,8.73,0,0,0-.42,3.29v9.45a12.12,12.12,0,0,0,.37,3.74,1.41,1.41,0,0,0,1.46,1,1.49,1.49,0,0,0,1.49-1.07,12.53,12.53,0,0,0,.39-3.76v-2.92H272v-2h4.26v11.78h-1.39l-.36-1.73a2.85,2.85,0,0,1-2.88,1.94,3.42,3.42,0,0,1-3.13-1.65,10.28,10.28,0,0,1-1-5.25Zm11.75-6.35h2.64v22.44h-2.64Zm5.58,6.48a12,12,0,0,1,.42-3.76,4.7,4.7,0,0,1,.91-1.75,4,4,0,0,1,3.16-1.25,3.6,3.6,0,0,1,3.76,2.56,13.4,13.4,0,0,1,.47,3.91v2.48H291v-2.5a11.38,11.38,0,0,0-.23-2.9,1.93,1.93,0,0,0-.58-1,1.32,1.32,0,0,0-.83-.23,1.42,1.42,0,0,0-1.46,1,9.36,9.36,0,0,0-.4,3.16v9.71a11.22,11.22,0,0,0,.37,3.56,1.47,1.47,0,0,0,2.79,0,12.28,12.28,0,0,0,.34-3.58v-2.48h2.62v2.45a10.57,10.57,0,0,1-1,5.2,3.5,3.5,0,0,1-3.34,1.67,3.63,3.63,0,0,1-3.42-1.72,10.28,10.28,0,0,1-1-5.18Zm13.51,9.53h3.45L300,97.54h0Zm0-16h3.16l3.7,22.44h-2.48l-.62-4.28h-4.08l-.57,4.28H295ZM199.6,136.9h3.45L201.28,125h0Zm0-16h3.16l3.71,22.43H204l-.63-4.28h-4.07l-.58,4.28h-2.53Zm15,6.32a9.75,9.75,0,0,0-.36-3.27,1.38,1.38,0,0,0-1.44-1h-1.67v9.35h1.62a1.44,1.44,0,0,0,1.49-1,11.81,11.81,0,0,0,.36-3.69Zm-6.11-6.32H213c2,0,3.24.81,3.76,2.45a12.81,12.81,0,0,1,.47,3.64,30.81,30.81,0,0,1-.11,3.13,6,6,0,0,1-1.2,3.34,3.75,3.75,0,0,1-2.92,1.07h-1.88v8.8h-2.64Zm10.64,0h2.64v20.24h4.15v2.19h-6.79Zm8.59,0h2.63v22.43H227.7Zm5.57,6.48a11.89,11.89,0,0,1,.42-3.76,4.62,4.62,0,0,1,.91-1.75,4.05,4.05,0,0,1,3.16-1.26,3.61,3.61,0,0,1,3.76,2.56,13.48,13.48,0,0,1,.47,3.92v2.48H239.4v-2.51a11.48,11.48,0,0,0-.23-2.9,2,2,0,0,0-.57-1,1.37,1.37,0,0,0-.84-.24,1.42,1.42,0,0,0-1.46,1,9.45,9.45,0,0,0-.39,3.16v9.72a11.18,11.18,0,0,0,.36,3.55,1.46,1.46,0,0,0,2.79,0,12.24,12.24,0,0,0,.34-3.58v-2.48H242v2.46a10.53,10.53,0,0,1-1,5.19,3.48,3.48,0,0,1-3.34,1.67,3.63,3.63,0,0,1-3.42-1.72,10.21,10.21,0,0,1-1-5.17Zm13.51,9.53h3.45L248.45,125h0Zm0-16H250l3.71,22.43h-2.49l-.62-4.28h-4.08l-.57,4.28h-2.53Zm14.95,6a6.84,6.84,0,0,0-.5-3,1.72,1.72,0,0,0-1.64-.91h-1.36v18.2h1.36a2.15,2.15,0,0,0,1.2-.29c.63-.44.94-1.67.94-3.65Zm-6.11-6h4.23c1.7,0,2.9.52,3.52,1.57a8.6,8.6,0,0,1,1,4.52l0,9.84a9,9,0,0,1-1.07,5,4,4,0,0,1-3.56,1.51h-4.12Zm13.67,16h3.45L271,125h0Zm0-16h3.16l3.7,22.43h-2.48l-.62-4.28H269l-.57,4.28h-2.54ZM199.6,164.4H203l-1.77-11.85h0Zm0-16h3.16l3.71,22.44H204l-.63-4.28h-4.07l-.58,4.28H196.2Zm8.84,0h2.64v20.25h4.15v2.19h-6.79Zm17.2,16h3.44l-1.77-11.85h0Zm0-16h3.16l3.71,22.44h-2.48l-.63-4.28h-4.07l-.58,4.28h-2.53Zm8.34,6.35c0-3.32.78-5.35,2.32-6.16a5.17,5.17,0,0,1,2-.47,4,4,0,0,1,3,.89,4,4,0,0,1,1.2,2.29,18.5,18.5,0,0,1,.27,3.5v1.73h-2.57v-2.93a6.28,6.28,0,0,0-.33-2.45,1.38,1.38,0,0,0-1.39-.73,1.49,1.49,0,0,0-1.44.91,9,9,0,0,0-.41,3.29v9.45a12.54,12.54,0,0,0,.36,3.74,1.41,1.41,0,0,0,1.47,1,1.47,1.47,0,0,0,1.48-1.07,12.44,12.44,0,0,0,.4-3.76v-2.92h-1.83v-2h4.26v11.78h-1.39l-.37-1.72a2.83,2.83,0,0,1-2.87,1.93,3.42,3.42,0,0,1-3.13-1.65,10.28,10.28,0,0,1-1-5.25Zm17.65-.86c0-1.72-.15-2.72-.47-3a1.91,1.91,0,0,0-1.33-.4H248.2v7.58h1.7a1.68,1.68,0,0,0,1.12-.32,1.63,1.63,0,0,0,.5-1.12,15.9,15.9,0,0,0,.15-2.58Zm-6.11-5.49h4.73a4.19,4.19,0,0,1,2.87.81,4.3,4.3,0,0,1,1.05,2.83c0,.54.08,1.38.08,2.55a7.92,7.92,0,0,1-.45,2.9,2.41,2.41,0,0,1-1.59,1.52,1.73,1.73,0,0,1,1.28.89,6.47,6.47,0,0,1,.6,2.37,44.65,44.65,0,0,1,.18,4.83,16,16,0,0,0,.21,3.74h-2.64a60.51,60.51,0,0,1-.21-7.57c0-1.6-.15-2.54-.47-2.8a2.16,2.16,0,0,0-1.41-.39L248.2,160v10.84h-2.64ZM263,154.32a9.2,9.2,0,0,0-.34-3,1.33,1.33,0,0,0-1.38-.89,1.47,1.47,0,0,0-1.47.91,8.38,8.38,0,0,0-.39,3V164.4a11.56,11.56,0,0,0,.34,3.48,1.42,1.42,0,0,0,1.47.94,1.39,1.39,0,0,0,1.43-.94,11.36,11.36,0,0,0,.34-3.48Zm-6.21.16c0-2.56.44-4.31,1.35-5.25a4.18,4.18,0,0,1,3.16-1.12c2,0,3.29.81,3.84,2.48a12.12,12.12,0,0,1,.5,3.89v9.9a10,10,0,0,1-1,5.09,3.71,3.71,0,0,1-3.44,1.62,3.78,3.78,0,0,1-3.45-1.62,9.82,9.82,0,0,1-1-5.09Zm-59.36-88.6h2.64V88.31h-2.64Z" transform="translate(0 -2)"/><path class="cls-3" d="M84.15,281.37H69.64v-28q0-8.91-.94-11.5a8.09,8.09,0,0,0-3.06-4.06,8.68,8.68,0,0,0-5.08-1.45,11.8,11.8,0,0,0-6.84,2.07,10.33,10.33,0,0,0-4.15,5.47c-.76,2.28-1.13,6.48-1.13,12.63v24.87a14.56,14.56,0,0,1-14.39-14.5v-6.35h-.13V226.37H47.38v8.07q7.23-9.24,18.21-9.24a22.12,22.12,0,0,1,8.83,1.73,14.77,14.77,0,0,1,6.06,4.42,15.77,15.77,0,0,1,2.86,6.11,44.3,44.3,0,0,1,.81,9.77Zm-74.8-14.5v-40.5H23.86v55h0A14.54,14.54,0,0,1,9.35,266.87Zm137-119.43c0-88.66,4.43-153.19-123.74-123.74C-5.61,148.84,57.88,147.44,146.35,147.44Zm-29-137.23c80.92,0,33.12,126.59,57.32,196.44l-15.4-37.27c-47.83,0-150.13,18-150.13-51L0,2Zm-71,34.27c18.37,32.05,48.07,64.67,79.27,84.42C89.63,98.16,70.7,71,46.35,44.48ZM9.35,219V205.49H23.86V219Z" transform="translate(0 -2)"/></svg>